<svg id="Layer_1" data-name="Layer 1" xmlns="http://www.w3.org/2000/svg" width="300" height="27.06" viewBox="0 0 300 27.06">
  <title>logo</title>
  <text transform="translate(0 21.49)" style="font-size: 22.268779754638672px;fill: #fff;font-family: DINCondensed-Bold, DIN Condensed;font-weight: 700">WIND<tspan x="37.12" y="0" style="letter-spacing: -0.01199391465059347em">O</tspan><tspan x="46.34" y="0">W </tspan><tspan x="63.69" y="0" style="letter-spacing: -0.05501413502438576em">A</tspan><tspan x="71.53" y="0">T</tspan><tspan x="78.92" y="0" style="letter-spacing: -0.05499220830656018em">T</tspan><tspan x="85.09" y="0" style="letter-spacing: -0.00002192671782558221em">ACHMENTS </tspan></text>
  <polygon points="182.21 6.82 167.13 11.87 167.13 9.59 182.21 4.54 182.21 6.82" style="fill: #3b567f"/>
  <polygon points="182.21 11.36 167.13 16.41 167.13 14.13 182.21 9.08 182.21 11.36" style="fill: #3b567f"/>
  <polygon points="182.21 15.9 167.13 20.95 167.13 18.67 182.21 13.62 182.21 15.9" style="fill: #3b567f"/>
  <polygon points="182.21 20.45 167.13 25.49 167.13 23.21 182.21 18.16 182.21 20.45" style="fill: #3b567f"/>
  <polyline points="182.21 0 182.21 2.28 167.13 7.33 167.13 5.04 182.21 0" style="fill: #3b567f"/>
  <text transform="translate(191.46 21.01)" style="font-size: 22.268779754638672px;fill: #fff;font-family: DINCondensed-Bold, DIN Condensed;font-weight: 700">EP CALCUL<tspan x="74.6" y="0" style="letter-spacing: -0.05501413502438576em">A</tspan><tspan x="82.44" y="0" style="letter-spacing: -0.01199391465059347em">T</tspan><tspan x="89.56" y="0">OR</tspan></text>
</svg>
