<?xml version="1.0" encoding="utf-8"?>
<!-- Generator: Adobe Illustrator 21.0.0, SVG Export Plug-In . SVG Version: 6.00 Build 0)  -->
<svg version="1.1" id="Layer_1" xmlns="http://www.w3.org/2000/svg" xmlns:xlink="http://www.w3.org/1999/xlink" x="0px" y="0px"
	 viewBox="0 0 4.5 13.21" xml:space="preserve">
<path d="M2.41,13.61c0,0-0.55,0.36-0.92,0.36C1.45,13.99,1.43,14,1.43,14l0-0.02c-0.08,0-0.16-0.01-0.24-0.03l-0.12-0.03
	c-0.65-0.16-1-0.81-0.84-1.47l0.91-3.68l0.41-1.66c0.38-1.54-1.21,0.33-1.54-0.38c-0.22-0.47,1.24-1.45,2.31-2.2
	c0,0,0.55-0.36,0.92-0.36c0.03-0.02,0.05-0.02,0.05-0.02l0,0.02c0.08,0,0.16,0.01,0.24,0.03l0.12,0.03
	c0.65,0.16,1.05,0.82,0.89,1.48L3.64,9.39l-0.41,1.66c-0.38,1.54,1.19-0.34,1.52,0.38C4.96,11.89,3.48,12.87,2.41,13.61z M4.72,2.12
	C4.49,3.04,3.57,3.6,2.65,3.37C1.73,3.14,1.17,2.22,1.4,1.3s1.16-1.48,2.07-1.25C4.39,0.28,4.95,1.21,4.72,2.12z"/>
</svg>
