<?xml version="1.0" encoding="utf-8"?>
<!-- Generator: Adobe Illustrator 21.0.0, SVG Export Plug-In . SVG Version: 6.00 Build 0)  -->
<svg version="1.1" id="Layer_1" xmlns="http://www.w3.org/2000/svg" xmlns:xlink="http://www.w3.org/1999/xlink" x="0px" y="0px"
	 viewBox="0 0 39.8 38.1" style="enable-background:new 0 0 39.8 38.1;" xml:space="preserve">
<style type="text/css">
	.st0{opacity:0.6165;filter:url(#d);enable-background:new    ;}
	.st1{fill:none;stroke:#000000;stroke-width:0.7393;stroke-linecap:round;}
	.st2{fill:url(#SVGID_1_);stroke:#000000;stroke-width:0.7393;stroke-linecap:round;}
	.st3{fill:url(#SVGID_2_);stroke:#000000;stroke-width:1.0007;stroke-linecap:round;}
	.st4{stroke:#000000;stroke-width:0.2639;stroke-linecap:round;}
	.st5{stroke:#000000;stroke-width:1.1075;stroke-linecap:round;}
	.st6{opacity:0.4417;fill:url(#SVGID_3_);enable-background:new    ;}
</style>
<filter  height="1.4174" id="d" width="1.3986" x="-.1993" y="-.20868">
	<feGaussianBlur  stdDeviation="23.82267"></feGaussianBlur>
</filter>
<g transform="matrix(1.8948 0 0 1.8948 -11.142 9.2757)">
	<g class="st0">
		<path d="M27,13.3c-1.7,3-18.5,3-20.2,0S13.4-4.2,16.9-4.2S28.7,10.3,27,13.3L27,13.3z"/>
		<path class="st1" d="M27,13.3c-1.7,3-18.5,3-20.2,0S13.4-4.2,16.9-4.2S28.7,10.3,27,13.3L27,13.3z"/>
	</g>
	
		<linearGradient id="SVGID_1_" gradientUnits="userSpaceOnUse" x1="74.4758" y1="60.2743" x2="92.7583" y2="11.6933" gradientTransform="matrix(0.6763 0 0 -0.6763 -38.8123 39.2092)">
		<stop  offset="0" style="stop-color:#FF0000"/>
		<stop  offset="1" style="stop-color:#770000"/>
	</linearGradient>
	<path class="st2" d="M26.5,12.8c-1.7,3-18.5,3-20.2,0S13-4.7,16.4-4.7S28.2,9.8,26.5,12.8L26.5,12.8z"/>
	
		<linearGradient id="SVGID_2_" gradientUnits="userSpaceOnUse" x1="143.0453" y1="24.8332" x2="163.2707" y2="-22.5732" gradientTransform="matrix(0.5288 0 0 -0.4721 -63.4054 13.2241)">
		<stop  offset="0" style="stop-color:#FFFFFF"/>
		<stop  offset="1" style="stop-color:#C0CBE4"/>
	</linearGradient>
	<path class="st3" d="M24.3,11.3c-1.3,2.1-14.4,2.1-15.8,0s5.2-12.2,7.9-12.2S25.6,9.3,24.3,11.3L24.3,11.3z"/>
	<path class="st4" d="M17.9,4.1c0,2.2-0.7,5-1.5,5c-0.8,0-1.5-2.9-1.5-5s0.7-2.8,1.5-2.8C17.2,1.3,17.9,1.9,17.9,4.1z"/>
	<path class="st5" d="M17.4,10.7c0,0.5-0.4,1-1,1c-0.5,0-1-0.4-1-1c0,0,0,0,0,0c0-0.5,0.4-1,1-1C16.9,9.7,17.4,10.1,17.4,10.7
		C17.4,10.7,17.4,10.7,17.4,10.7z"/>
	
		<linearGradient id="SVGID_3_" gradientUnits="userSpaceOnUse" x1="-84.4615" y1="125.2776" x2="-86.5652" y2="136.9718" gradientTransform="matrix(1.8948 0 0 -1.8948 176.0372 245.1727)">
		<stop  offset="0" style="stop-color:#FFFFFF"/>
		<stop  offset="1" style="stop-color:#FFFFFF;stop-opacity:0"/>
	</linearGradient>
	<path class="st6" d="M7.1,7.5C9.2,2.3,14-4.7,16.4-4.7c1.9,0,5.5,4.6,7.8,9.2C22,6.6,17,8.5,7.1,7.5z"/>
</g>
</svg>
