  0
SECTION
  2
ENTITIES
  0
LINE
  5
C0
100
AcDbEntity
  8
0
100
AcDbLine
 10
0.4439944244809141
 20
0.6464069183018852
 30
0.0
 11
-0.5760055755190865
 21
0.6464069183018852
 31
0.0
  0
LINE
  5
BD
100
AcDbEntity
  8
0
100
AcDbLine
 10
0.4439944244809141
 20
-2.291092232848115
 30
0.0
 11
0.5052444244809151
 21
-2.291092232848115
 31
0.0
  0
LINE
  5
BC
100
AcDbEntity
  8
0
100
AcDbLine
 10
-0.5760055755190865
 20
-2.291092232848115
 30
0.0
 11
-0.5916355956744692
 21
-2.291092225220292
 31
0.0
  0
LINE
  5
BB
100
AcDbEntity
  8
0
100
AcDbLine
 10
-0.391005575519086
 20
-2.291092232848115
 30
0.0
 11
0.2589944244809144
 21
-2.291092232848115
 31
0.0
  0
LINE
  5
B8
100
AcDbEntity
  8
SPACER
100
AcDbLine
 10
-0.3785055755190858
 20
-1.853592232848115
 30
0.0
 11
0.2464944244809142
 21
-1.853592232848115
 31
0.0
  0
LINE
  5
B3
100
AcDbEntity
  8
FRAME2
100
AcDbLine
 10
-0.7447555755190849
 20
-3.541592092818115
 30
0.0
 11
0.8958694244809155
 21
-3.541592092818115
 31
0.0
  0
LINE
  5
B2
100
AcDbEntity
  8
FRAME2
100
AcDbLine
 10
0.5052444244809151
 20
-2.853591413798115
 30
0.0
 11
-1.307255575519084
 21
-2.853591413798115
 31
0.0
  0
LINE
  5
B1
100
AcDbEntity
  8
GLASS
100
AcDbLine
 10
-0.391005575519086
 20
-2.249792232848114
 30
0.0
 11
-0.3910055755190867
 21
0.6464069183018852
 31
0.0
  0
LINE
  5
B0
100
AcDbEntity
  8
GLASS
100
AcDbLine
 10
-0.5760055755190865
 20
-2.291092232848115
 30
0.0
 11
-0.5760055755190865
 21
0.6464069183018852
 31
0.0
  0
LINE
  5
AF
100
AcDbEntity
  8
FRAME2
100
AcDbLine
 10
-1.307255575519084
 20
-3.541592092818115
 30
0.0
 11
-0.9947555755190848
 21
-3.541592092818115
 31
0.0
  0
LINE
  5
AE
100
AcDbEntity
  8
FRAME1
100
AcDbLine
 10
-1.141974723323607
 20
-1.990806342658116
 30
0.0
 11
-0.5916387867162456
 21
-1.853592232848115
 31
0.0
  0
LINE
  5
AD
100
AcDbEntity
  8
FRAME1
100
AcDbLine
 10
-0.5916358590036093
 20
-2.830674709378115
 30
0.0
 11
-1.247884905323607
 21
-2.853591413798115
 31
0.0
  0
LINE
  5
AC
100
AcDbEntity
  8
FRAME1
100
AcDbLine
 10
-1.247884905323607
 20
-2.853591413798115
 30
0.0
 11
-1.247885501373607
 21
-2.415591301028115
 31
0.0
  0
LINE
  5
AB
100
AcDbEntity
  8
FRAME2
100
AcDbLine
 10
-1.307255575519084
 20
-2.853591413798115
 30
0.0
 11
-1.307255575519084
 21
-3.541592092818115
 31
0.0
  0
LINE
  5
AA
100
AcDbEntity
  8
FRAME1
100
AcDbLine
 10
-1.247885501373607
 20
-2.415591301028115
 30
0.0
 11
-1.141974723323607
 21
-1.990806342658116
 31
0.0
  0
LINE
  5
A9
100
AcDbEntity
  8
FRAME1
100
AcDbLine
 10
-0.5916353821636089
 20
-1.853591383998115
 30
0.0
 11
-0.5916358590036093
 21
-2.830674709378115
 31
0.0
  0
LINE
  5
A7
100
AcDbEntity
  8
FRAME2
100
AcDbLine
 10
-0.9947555755190848
 20
-3.322842092818115
 30
0.0
 11
-0.7447555755190849
 21
-3.322842092818115
 31
0.0
  0
LINE
  5
A6
100
AcDbEntity
  8
FRAME2
100
AcDbLine
 10
-0.9947555755190848
 20
-3.541592092818115
 30
0.0
 11
-0.9947555755190848
 21
-3.322842092818115
 31
0.0
  0
LINE
  5
A5
100
AcDbEntity
  8
FRAME2
100
AcDbLine
 10
-0.7447555755190849
 20
-3.322842092818115
 30
0.0
 11
-0.7447555755190849
 21
-3.541592092818115
 31
0.0
  0
LINE
  5
A4
100
AcDbEntity
  8
GLASS
100
AcDbLine
 10
-0.391005575519086
 20
-2.291092232848115
 30
0.0
 11
-0.5760055755190865
 21
-2.291092232848115
 31
0.0
  0
LINE
  5
A3
100
AcDbEntity
  8
SILICON-TAPE
100
AcDbLine
 10
-0.5760055755190865
 20
-2.291092232848115
 30
0.0
 11
-0.5760055755190865
 21
-1.884843081698116
 31
0.0
  0
LINE
  5
A2
100
AcDbEntity
  8
SILICON-TAPE
100
AcDbLine
 10
-0.5916357024301121
 20
-2.509843081698111
 30
0.0
 11
-0.5916357024301121
 21
-1.884843081698116
 31
0.0
  0
LINE
  5
A0
100
AcDbEntity
  8
SILICON-TAPE
100
AcDbLine
 10
-0.5760055755190865
 20
-1.884843081698116
 30
0.0
 11
-0.5916357024301121
 21
-1.884843081698116
 31
0.0
  0
LINE
  5
9E
100
AcDbEntity
  8
SEALANT
100
AcDbLine
 10
-0.391005575519086
 20
-2.033792232848115
 30
0.0
 11
-0.391005575519086
 21
-2.291092232848115
 31
0.0
  0
LINE
  5
8E
100
AcDbEntity
  8
PIB
100
AcDbLine
 10
-0.391005575519086
 20
-1.853592232848115
 30
0.0
 11
-0.391005575519086
 21
-2.033792232848115
 31
0.0
  0
LINE
  5
8D
100
AcDbEntity
  8
PIB
100
AcDbLine
 10
-0.3785055755190858
 20
-1.853592232848115
 30
0.0
 11
-0.391005575519086
 21
-1.853592232848115
 31
0.0
  0
LINE
  5
84
100
AcDbEntity
  8
GLASS
100
AcDbLine
 10
0.4439944244809141
 20
-2.291092232848115
 30
0.0
 11
0.4439944244809141
 21
0.6464069183018852
 31
0.0
  0
LINE
  5
83
100
AcDbEntity
  8
GLASS
100
AcDbLine
 10
0.2589944244809144
 20
-2.291092232848115
 30
0.0
 11
0.2589944244809144
 21
0.6464069183018852
 31
0.0
  0
LINE
  5
82
100
AcDbEntity
  8
FRAME2
100
AcDbLine
 10
1.020869424480915
 20
-3.541592092818115
 30
0.0
 11
3.255242517130913
 21
-3.541592092818115
 31
0.0
  0
LINE
  5
81
100
AcDbEntity
  8
FRAME2
100
AcDbLine
 10
3.255242517130913
 20
-2.853591413798115
 30
0.0
 11
2.255242517130914
 21
-2.853591413798115
 31
0.0
  0
LINE
  5
80
100
AcDbEntity
  8
FRAME2
100
AcDbLine
 10
2.13778224494349
 20
-2.353592367468114
 30
0.0
 11
0.5052444244809151
 21
-2.353592367468114
 31
0.0
  0
LINE
  5
7F
100
AcDbEntity
  8
FRAME3
100
AcDbLine
 10
0.5052444244809151
 20
-1.853593081698114
 30
0.0
 11
1.498993599320917
 21
-1.853593081698113
 31
0.0
  0
LINE
  5
7E
100
AcDbEntity
  8
FRAME3
100
AcDbLine
 10
1.598994424480914
 20
-2.353593081698114
 30
0.0
 11
0.5052444244809151
 21
-2.353593081698114
 31
0.0
  0
LINE
  5
7D
100
AcDbEntity
  8
FRAME2
100
AcDbLine
 10
0.5052444244809151
 20
-2.353592367468114
 30
0.0
 11
0.5052444244809151
 21
-2.853591413798115
 31
0.0
  0
LINE
  5
7C
100
AcDbEntity
  8
FRAME2
100
AcDbLine
 10
0.8958694244809155
 20
-3.322592230138115
 30
0.0
 11
1.020869424480915
 21
-3.322592230138115
 31
0.0
  0
LINE
  5
7B
100
AcDbEntity
  8
FRAME2
100
AcDbLine
 10
0.8958694244809155
 20
-3.541592092818115
 30
0.0
 11
0.8958694244809155
 21
-3.322592230138115
 31
0.0
  0
LINE
  5
7A
100
AcDbEntity
  8
FRAME2
100
AcDbLine
 10
1.020869424480915
 20
-3.322592230138115
 30
0.0
 11
1.020869424480915
 21
-3.541592092818115
 31
0.0
  0
LINE
  5
79
100
AcDbEntity
  8
TAPE
100
AcDbLine
 10
0.4439944244809154
 20
-2.291092232848115
 30
0.0
 11
0.4439944244809162
 21
-1.884843081698116
 31
0.0
  0
LINE
  5
78
100
AcDbEntity
  8
TAPE
100
AcDbLine
 10
0.5052444244809151
 20
-2.509843081698115
 30
0.0
 11
0.5052444244809151
 21
-1.884843081698114
 31
0.0
  0
LINE
  5
77
100
AcDbEntity
  8
SEALANT
100
AcDbLine
 10
0.2589944244809135
 20
-2.033792232848115
 30
0.0
 11
0.2589944244809148
 21
-2.291092232848115
 31
0.0
  0
LINE
  5
76
100
AcDbEntity
  8
FRAME3
100
AcDbLine
 10
0.5052444244809151
 20
-2.353593081698114
 30
0.0
 11
0.5052444244809151
 21
-1.853593081698114
 31
0.0
  0
LINE
  5
75
100
AcDbEntity
  8
GLASS
100
AcDbLine
 10
0.2589944244809144
 20
-2.291092232848115
 30
0.0
 11
0.4439944244809141
 21
-2.291092232848115
 31
0.0
  0
LINE
  5
62
100
AcDbEntity
  8
PIB
100
AcDbLine
 10
0.2464944244809142
 20
-1.853592232848115
 30
0.0
 11
0.2589944244809144
 21
-1.853592232848115
 31
0.0
  0
LINE
  5
60
100
AcDbEntity
  8
PIB
100
AcDbLine
 10
0.2589944244809144
 20
-1.853592232848115
 30
0.0
 11
0.2589944244809144
 21
-2.033792232848115
 31
0.0
  0
LINE
  5
58
100
AcDbEntity
  8
TAPE
100
AcDbLine
 10
0.5052444244809151
 20
-1.884843081698114
 30
0.0
 11
0.4439944244809162
 21
-1.884843081698116
 31
0.0
  0
LINE
  5
56
100
AcDbEntity
  8
FRAME2
100
AcDbLine
 10
2.255242517130914
 20
-2.853591413798115
 30
0.0
 11
2.241272178791549
 21
-2.453531450722546
 31
0.0
  0
LINE
  5
55
100
AcDbEntity
  8
FRAME3
100
AcDbLine
 10
1.598993764352916
 20
-1.953593081697978
 30
0.0
 11
1.598994424480914
 21
-2.353593081698114
 31
0.0
  0
LINE
  5
54
100
AcDbEntity
  8
FRAME3
100
AcDbLine
 10
1.598993764352916
 20
-1.953593081697978
 30
0.0
 11
1.498993599320917
 21
-1.853593081698113
 31
0.0
  0
LINE
  5
52
100
AcDbEntity
  8
FRAME2
100
AcDbLine
 10
2.13778224494349
 20
-2.353592367468114
 30
0.0
 11
2.241272178791549
 21
-2.453531450722546
 31
0.0
  0
LINE
  5
51
100
AcDbEntity
  8
FRAME2
100
AcDbLine
 10
3.255242517130913
 20
-3.541592092818115
 30
0.0
 11
3.255242517130913
 21
-2.853591413798115
 31
0.0
  0
POLYLINE
  5
46
100
AcDbEntity
  8
0
100
AcDb2dPolyline
 66
     1
 10
0.0
 20
0.0
 30
0.0
 70
     1
  0
VERTEX
  5
47
100
AcDbEntity
  8
0
100
AcDbVertex
100
AcDb2dVertex
 10
-0.5916353974151838
 20
-1.884843081698264
 30
0.0
  0
VERTEX
  5
48
100
AcDbEntity
  8
0
100
AcDbVertex
100
AcDb2dVertex
 10
-0.5916353821636088
 20
-1.853591383998115
 30
0.0
  0
VERTEX
  5
49
100
AcDbEntity
  8
0
100
AcDbVertex
100
AcDb2dVertex
 10
-1.141974723323607
 20
-1.990806342658116
 30
0.0
  0
VERTEX
  5
4A
100
AcDbEntity
  8
0
100
AcDbVertex
100
AcDb2dVertex
 10
-1.247885501373607
 20
-2.415591301028115
 30
0.0
  0
VERTEX
  5
4B
100
AcDbEntity
  8
0
100
AcDbVertex
100
AcDb2dVertex
 10
-1.247884905323607
 20
-2.853591413798115
 30
0.0
  0
VERTEX
  5
4C
100
AcDbEntity
  8
0
100
AcDbVertex
100
AcDb2dVertex
 10
-0.5916358590036094
 20
-2.830674709378115
 30
0.0
  0
VERTEX
  5
4D
100
AcDbEntity
  8
0
100
AcDbVertex
100
AcDb2dVertex
 10
-0.5916357024301121
 20
-2.509843081698111
 30
0.0
  0
VERTEX
  5
4E
100
AcDbEntity
  8
0
100
AcDbVertex
100
AcDb2dVertex
 10
-0.5916357024301121
 20
-1.884843081698116
 30
0.0
  0
SEQEND
  5
4F
100
AcDbEntity
  8
0
  0
POLYLINE
  5
3F
100
AcDbEntity
  8
0
100
AcDb2dPolyline
 66
     1
 10
0.0
 20
0.0
 30
0.0
 70
     1
  0
VERTEX
  5
40
100
AcDbEntity
  8
0
100
AcDbVertex
100
AcDb2dVertex
 10
0.5052444244809151
 20
-1.853593081698114
 30
0.0
  0
VERTEX
  5
41
100
AcDbEntity
  8
0
100
AcDbVertex
100
AcDb2dVertex
 10
0.5052444244809151
 20
-2.353592367468114
 30
0.0
  0
VERTEX
  5
42
100
AcDbEntity
  8
0
100
AcDbVertex
100
AcDb2dVertex
 10
1.598994424479735
 20
-2.353592367468114
 30
0.0
  0
VERTEX
  5
43
100
AcDbEntity
  8
0
100
AcDbVertex
100
AcDb2dVertex
 10
1.598993764352916
 20
-1.953593081697978
 30
0.0
  0
VERTEX
  5
44
100
AcDbEntity
  8
0
100
AcDbVertex
100
AcDb2dVertex
 10
1.498993599320917
 20
-1.853593081698113
 30
0.0
  0
SEQEND
  5
45
100
AcDbEntity
  8
0
  0
POLYLINE
  5
29
100
AcDbEntity
  8
0
100
AcDb2dPolyline
 66
     1
 10
0.0
 20
0.0
 30
0.0
 70
     1
  0
VERTEX
  5
2A
100
AcDbEntity
  8
0
100
AcDbVertex
100
AcDb2dVertex
 10
1.020869424480915
 20
-3.322592230138096
 30
0.0
  0
VERTEX
  5
2B
100
AcDbEntity
  8
0
100
AcDbVertex
100
AcDb2dVertex
 10
1.020869424480915
 20
-3.541592092818115
 30
0.0
  0
VERTEX
  5
2C
100
AcDbEntity
  8
0
100
AcDbVertex
100
AcDb2dVertex
 10
3.255242517130913
 20
-3.541592092818115
 30
0.0
  0
VERTEX
  5
2D
100
AcDbEntity
  8
0
100
AcDbVertex
100
AcDb2dVertex
 10
3.255242517130914
 20
-2.853591413798115
 30
0.0
  0
VERTEX
  5
2E
100
AcDbEntity
  8
0
100
AcDbVertex
100
AcDb2dVertex
 10
2.255242517130914
 20
-2.853591413798115
 30
0.0
  0
VERTEX
  5
2F
100
AcDbEntity
  8
0
100
AcDbVertex
100
AcDb2dVertex
 10
2.241272178791549
 20
-2.453531450722546
 30
0.0
  0
VERTEX
  5
30
100
AcDbEntity
  8
0
100
AcDbVertex
100
AcDb2dVertex
 10
2.13778224494349
 20
-2.353592367468114
 30
0.0
  0
VERTEX
  5
31
100
AcDbEntity
  8
0
100
AcDbVertex
100
AcDb2dVertex
 10
1.598994424479735
 20
-2.353592367468114
 30
0.0
  0
VERTEX
  5
32
100
AcDbEntity
  8
0
100
AcDbVertex
100
AcDb2dVertex
 10
1.598994424480914
 20
-2.353593081698114
 30
0.0
  0
VERTEX
  5
33
100
AcDbEntity
  8
0
100
AcDbVertex
100
AcDb2dVertex
 10
0.5052444244809151
 20
-2.353593081698114
 30
0.0
  0
VERTEX
  5
34
100
AcDbEntity
  8
0
100
AcDbVertex
100
AcDb2dVertex
 10
0.5052444244809151
 20
-2.509843081698115
 30
0.0
  0
VERTEX
  5
35
100
AcDbEntity
  8
0
100
AcDbVertex
100
AcDb2dVertex
 10
0.5052444244809151
 20
-2.853591413798115
 30
0.0
  0
VERTEX
  5
36
100
AcDbEntity
  8
0
100
AcDbVertex
100
AcDb2dVertex
 10
-1.307255575519084
 20
-2.853591413798115
 30
0.0
  0
VERTEX
  5
37
100
AcDbEntity
  8
0
100
AcDbVertex
100
AcDb2dVertex
 10
-1.307255575519084
 20
-3.541592092818115
 30
0.0
  0
VERTEX
  5
38
100
AcDbEntity
  8
0
100
AcDbVertex
100
AcDb2dVertex
 10
-0.9947555755190848
 20
-3.541592092818115
 30
0.0
  0
VERTEX
  5
39
100
AcDbEntity
  8
0
100
AcDbVertex
100
AcDb2dVertex
 10
-0.9947555755190848
 20
-3.322842092818115
 30
0.0
  0
VERTEX
  5
3A
100
AcDbEntity
  8
0
100
AcDbVertex
100
AcDb2dVertex
 10
-0.7447555755190849
 20
-3.322842092818115
 30
0.0
  0
VERTEX
  5
3B
100
AcDbEntity
  8
0
100
AcDbVertex
100
AcDb2dVertex
 10
-0.7447555755190848
 20
-3.541592092818115
 30
0.0
  0
VERTEX
  5
3C
100
AcDbEntity
  8
0
100
AcDbVertex
100
AcDb2dVertex
 10
0.8958694244809153
 20
-3.541592092818113
 30
0.0
  0
VERTEX
  5
3D
100
AcDbEntity
  8
0
100
AcDbVertex
100
AcDb2dVertex
 10
0.8958694244809155
 20
-3.322592230138115
 30
0.0
  0
SEQEND
  5
3E
100
AcDbEntity
  8
0
  0
ENDSEC
  0
EOF
